<svg width="60" height="60" viewBox="0 0 60 60" fill="none" xmlns="http://www.w3.org/2000/svg">
<g id="Logo">
<circle id="Ellipse 1" cx="30" cy="30" r="28.5" stroke="url(#paint0_linear)" stroke-width="3"/>
<mask id="mask0" mask-type="alpha" maskUnits="userSpaceOnUse" x="12" y="15" width="37" height="27">
<g id="Group 1">
<line id="Line 1" x1="13" y1="16" x2="25" y2="16" stroke="black" stroke-width="2" stroke-linecap="round"/>
<line id="Line 2" x1="13" y1="29" x2="25" y2="29" stroke="black" stroke-width="2" stroke-linecap="round"/>
<line id="Line 3" x1="13" y1="41" x2="25" y2="41" stroke="black" stroke-width="2" stroke-linecap="round"/>
<path id="Vector 1" d="M25 16C29 19 29 26 25 29" stroke="black" stroke-width="2"/>
<path id="Vector 2" d="M25 29C29 32 30 38 25 41" stroke="black" stroke-width="2"/>
<line id="Line 5" x1="37" y1="27" x2="48" y2="27" stroke="black" stroke-width="2" stroke-linecap="round"/>
<line id="Line 6" x1="37" y1="16" x2="48" y2="16" stroke="black" stroke-width="2" stroke-linecap="round"/>
<line id="Line 7" x1="37" y1="27" x2="37" y2="41" stroke="black" stroke-width="2" stroke-linecap="round"/>
</g>
</mask>
<g mask="url(#mask0)">
<rect id="Rectangle 2" x="9" y="14" width="42" height="31" fill="url(#paint1_linear)"/>
</g>
</g>
<defs>
<linearGradient id="paint0_linear" x1="30" y1="0" x2="30" y2="60" gradientUnits="userSpaceOnUse">
<stop stop-color="#F59300"/>
<stop offset="1" stop-color="#E43DB6"/>
</linearGradient>
<linearGradient id="paint1_linear" x1="30" y1="14" x2="30" y2="45" gradientUnits="userSpaceOnUse">
<stop stop-color="#F59300"/>
<stop offset="1" stop-color="#E43DB6"/>
</linearGradient>
</defs>
</svg>
